<svg width="800" height="800" viewBox="0 0 800 800" fill="none" xmlns="http://www.w3.org/2000/svg">
    <path d="M166.667 666.666C157.826 666.666 149.348 663.154 143.097 656.903C136.845 650.652 133.333 642.173 133.333 633.333V599.999H100C91.1595 599.999 82.6811 596.487 76.4299 590.236C70.1786 583.985 66.6667 575.507 66.6667 566.666C66.6667 557.825 70.1786 549.347 76.4299 543.096C82.6811 536.845 91.1595 533.333 100 533.333H133.333V499.999C133.333 491.159 136.845 482.68 143.097 476.429C149.348 470.178 157.826 466.666 166.667 466.666C175.507 466.666 183.986 470.178 190.237 476.429C196.488 482.68 200 491.159 200 499.999V533.333H233.333C242.174 533.333 250.652 536.845 256.904 543.096C263.155 549.347 266.667 557.825 266.667 566.666C266.667 575.507 263.155 583.985 256.904 590.236C250.652 596.487 242.174 599.999 233.333 599.999H200V633.333C200 642.173 196.488 650.652 190.237 656.903C183.986 663.154 175.507 666.666 166.667 666.666Z" fill="#22DE93" />
    <path d="M233.333 266.668C233.28 233.105 241.673 200.069 257.74 170.603C273.807 141.136 297.031 116.187 325.273 98.0534C353.514 79.9197 385.865 69.1847 419.345 66.8374C452.825 64.4902 486.358 70.6061 516.854 84.6217C547.349 98.6374 573.827 120.102 593.849 147.038C613.87 173.975 626.791 205.517 631.421 238.758C636.051 271.999 632.241 305.871 620.342 337.253C608.443 368.636 588.838 396.519 563.333 418.334C613.75 437.942 657.011 472.42 687.374 517.19C717.737 561.961 733.766 614.907 733.333 669.001C732.728 686.275 725.438 702.638 713.001 714.64C700.563 726.642 683.951 733.345 666.667 733.334H333.333C324.493 733.334 316.014 729.822 309.763 723.571C303.512 717.32 300 708.842 300 700.001V443.334C300.155 435.619 302.983 428.197 308 422.334C284.717 403.612 265.925 379.911 253.004 352.973C240.083 326.035 233.362 296.544 233.333 266.668Z" fill="#1C233B" />
</svg>
