<svg width="3653" height="630" viewBox="0 0 3653 630" fill="none" xmlns="http://www.w3.org/2000/svg">
    <path fill-rule="evenodd" clip-rule="evenodd" d="M1451.53 270.476H1415.04L1412.03 283.732H1451.53C1487.67 283.732 1499.86 293.478 1499.86 322.354V336.332C1490.9 327.241 1475.05 322.633 1452.67 322.633C1416.94 322.633 1399.57 337.979 1399.57 369.536V371.833C1399.57 401.421 1416.68 416.428 1450.4 416.428H1459.47C1495.2 416.428 1513.32 401.421 1513.32 371.833V322.354C1513.32 285.506 1495.41 270.476 1451.53 270.476ZM1499.86 373.746C1499.86 394.921 1488.44 403.172 1459.1 403.172H1453.42C1425.12 403.172 1413.03 393.796 1413.03 371.833V369.536C1413.03 345.679 1424.55 335.508 1451.53 335.508H1453.8C1486.09 335.508 1499.86 345.337 1499.86 368.383V373.746ZM514.766 296.482L521.942 261.072H460.17V212.7L416.808 219.336V363.819C416.808 413.769 436.146 428.633 488.867 428.633H511.95L519.131 393.535H491.987C467.969 393.535 460.167 387.536 460.167 360.973V296.482H514.766ZM216.841 195.938V351.178C216.841 408.719 243.042 432.745 300.134 432.745C359.405 432.745 385.611 409.351 385.611 351.49V336.634C385.611 282.256 361.274 255.695 308.244 255.695C291.396 255.695 272.99 259.171 260.511 268.97V188.983L216.841 195.938ZM301.692 290.469C331.639 290.469 342.249 302.486 342.249 338.208V351.49C342.249 386.264 331.639 398.284 301.068 398.284C270.497 398.284 259.884 386.264 259.884 351.174V333.154C259.884 301.22 270.497 290.469 301.692 290.469ZM619.583 255.695C562.492 255.695 536.287 280.037 536.287 335.68V344.219C536.287 397.015 559.063 422.622 612.715 422.622C629.875 422.622 647.035 419.466 659.199 409.66V415.991C659.199 445.711 646.411 455.502 616.46 455.502L594.5 456C584.251 456.185 583.623 457.531 577.446 467.794L577.411 467.779C525.973 550.281 436.67 600.682 339.347 600.682C184.063 600.682 57.7351 472.659 57.7351 315.286C57.7351 157.916 184.063 29.8925 339.347 29.8925C448.42 29.8925 547.646 93.9078 594.069 193.529H607.009C559.696 86.8543 454.81 18 339.347 18C177.597 18 46 151.363 46 315.286C46 479.212 177.597 612.575 339.347 612.575C434.474 612.575 522.261 566.353 576.99 489.647H618.956C674.175 489.647 702.565 468.468 702.565 414.405V332.838C702.565 279.088 675.425 255.695 619.583 255.695ZM659.515 349.592C659.515 379.311 649.22 388.478 619.587 388.478C586.202 388.478 579.653 376.781 579.653 342.323V336.95C579.653 302.798 585.578 290.469 619.583 290.469C652.961 290.469 659.515 302.486 659.515 337.262V349.592ZM1541.11 416.428H1554.58V215.634H1541.11V416.428ZM1237.87 283.736L1240.89 270.476H1180.68V232.569L1166.85 235.073V364.93C1166.85 401.91 1180.52 415.663 1217.29 415.663H1237.17L1239.68 402.407H1217.29C1189.58 402.407 1180.68 393.49 1180.68 365.691V283.739L1237.87 283.736ZM1362.49 358.796C1362.49 392.97 1351.95 403.937 1319.08 403.937C1287.19 403.937 1276.42 392.549 1276.42 358.796V270.476H1262.59V358.796C1262.59 400.822 1278.43 417.192 1319.08 417.192C1359.48 417.192 1375.95 400.28 1375.95 358.796V270.476H1362.49V358.796ZM1058.07 349.208V336.931C1058.07 297.654 1071.31 283.736 1108.67 283.736H1140.24L1143.25 270.476H1108.68C1064.12 270.476 1044.23 290.97 1044.23 336.927V349.208C1044.23 395.166 1064.11 415.663 1108.68 415.663H1140.61L1143.63 402.407H1108.68C1072.26 402.407 1058.07 387.491 1058.07 349.208ZM958.442 270.476H921.957L918.944 283.732H958.442C994.298 283.732 1006.39 293.478 1006.39 322.354V336.332C997.44 327.241 981.593 322.633 959.195 322.633C923.477 322.633 906.111 337.979 906.111 369.536V371.833C906.111 401.421 923.332 416.428 957.303 416.428H966.387C1001.87 416.428 1019.86 401.421 1019.86 371.833V322.354C1019.86 285.506 1002.06 270.476 958.442 270.476ZM1006.39 373.746C1006.39 395.2 995.448 403.172 966.01 403.172H960.335C931.766 403.172 919.572 393.796 919.572 371.833V369.536C919.572 345.679 931.083 335.508 958.063 335.508H960.335C992.619 335.508 1006.39 345.337 1006.39 368.383V373.746ZM822.962 268.175C780.293 268.175 760.416 289.538 760.416 335.395V460.15H773.876V396.089C783.617 408.919 801.776 416.428 823.718 416.428C866.196 416.428 885.138 395.694 885.138 349.208V335.015C885.138 288.789 865.96 268.175 822.962 268.175ZM871.294 349.204C871.294 388.546 858.404 403.168 823.718 403.168C790.895 403.168 774.252 386.948 774.252 354.955V335.395C774.252 297.059 788.366 281.426 822.962 281.426C857.742 281.426 871.294 296.449 871.294 335.015V349.204Z" fill="white" stroke="#195AB4" stroke-width="16" />
    <g clip-path="url(#clip0_2176_222)">
        <path d="M1758.18 286.834C1750.13 286.834 1743.57 287.433 1738.5 288.632C1733.58 289.681 1729.71 291.928 1726.87 295.374C1724.04 298.671 1722.1 303.315 1721.06 309.309C1720.17 315.302 1719.72 323.093 1719.72 332.682V350.212C1719.72 359.652 1720.24 367.368 1721.28 373.361C1722.48 379.354 1724.49 384.074 1727.32 387.52C1730.3 390.816 1734.25 393.064 1739.17 394.263C1744.24 395.461 1750.72 396.061 1758.63 396.061C1761.31 396.061 1763.99 396.061 1766.67 396.061C1769.51 396.061 1772.56 396.061 1775.84 396.061C1779.27 396.061 1782.92 396.061 1786.8 396.061C1790.82 395.911 1795.37 395.761 1800.44 395.611L1795.52 421.457C1786.72 421.756 1779.2 421.906 1772.94 421.906C1766.82 421.906 1761.76 421.906 1757.73 421.906C1744.61 421.906 1733.66 420.633 1724.86 418.086C1716.07 415.539 1708.99 411.493 1703.62 405.949C1698.25 400.256 1694.45 392.839 1692.22 383.7C1689.98 374.56 1688.86 363.323 1688.86 349.988V332.682C1688.86 319.197 1690.06 307.885 1692.44 298.746C1694.83 289.606 1698.7 282.264 1704.07 276.721C1709.58 271.027 1716.66 266.982 1725.31 264.584C1734.1 262.187 1744.84 260.988 1757.51 260.988C1762.58 260.988 1768.24 260.988 1774.5 260.988C1780.91 260.988 1789.11 261.138 1799.1 261.438L1794.18 287.284C1789.11 287.134 1783.22 287.059 1776.51 287.059C1769.95 286.909 1763.84 286.834 1758.18 286.834ZM1818.82 254.471H1847.88V421.457H1818.82V254.471ZM1871.66 304.589H1900.72V421.457H1871.66V304.589ZM1903.63 271.551C1903.63 277.245 1902.36 281.365 1899.83 283.912C1897.3 286.31 1892.82 287.508 1886.41 287.508C1880 287.508 1875.53 286.31 1873 283.912C1870.46 281.365 1869.2 277.245 1869.2 271.551C1869.2 266.008 1870.46 261.962 1873 259.415C1875.53 256.868 1880 255.594 1886.41 255.594C1892.82 255.594 1897.3 256.868 1899.83 259.415C1902.36 261.962 1903.63 266.008 1903.63 271.551ZM1951.33 372.912C1951.33 378.306 1951.63 382.726 1952.22 386.172C1952.82 389.618 1954.01 392.315 1955.8 394.263C1957.74 396.21 1960.35 397.559 1963.63 398.308C1966.91 399.057 1971.23 399.432 1976.6 399.432C1981.81 399.432 1987.78 399.432 1994.48 399.432C2001.19 399.432 2009.46 399.282 2019.3 398.982L2014.83 421.457C2010.66 421.607 2006.93 421.682 2003.65 421.682C2000.37 421.831 1997.17 421.906 1994.04 421.906C1991.06 421.906 1988.07 421.906 1985.09 421.906C1982.11 421.906 1978.83 421.906 1975.25 421.906C1964.67 421.906 1955.95 420.708 1949.09 418.31C1942.24 415.913 1936.8 412.467 1932.77 407.972C1928.9 403.477 1926.14 398.008 1924.5 391.566C1923.01 384.973 1922.26 377.482 1922.26 369.091V356.505C1922.26 347.515 1923.08 339.574 1924.72 332.682C1926.36 325.79 1929.19 320.022 1933.22 315.377C1937.39 310.582 1942.91 306.986 1949.77 304.589C1956.77 302.192 1965.57 300.993 1976.15 300.993C1985.99 300.993 1994.11 302.117 2000.52 304.364C2007.08 306.462 2012.3 309.459 2016.17 313.354C2020.2 317.25 2023.03 321.894 2024.67 327.288C2026.31 332.532 2027.13 338.301 2027.13 344.594V348.414C2027.13 353.509 2026.83 357.704 2026.23 361C2025.64 364.147 2024.59 366.619 2023.1 368.417C2021.76 370.215 2019.97 371.413 2017.74 372.013C2015.5 372.612 2012.74 372.912 2009.46 372.912H1951.33ZM1975.48 323.018C1970.41 323.018 1966.31 323.468 1963.18 324.367C1960.05 325.116 1957.59 326.614 1955.8 328.862C1954.01 330.959 1952.82 333.881 1952.22 337.627C1951.63 341.223 1951.33 345.867 1951.33 351.561H1999.4V346.392C1999.4 342.047 1999.03 338.376 1998.29 335.379C1997.54 332.383 1996.27 329.985 1994.48 328.187C1992.7 326.389 1990.24 325.116 1987.11 324.367C1983.98 323.468 1980.1 323.018 1975.48 323.018ZM2047.43 421.457V341.897C2047.43 334.555 2048.48 328.262 2050.56 323.018C2052.65 317.774 2055.85 313.579 2060.18 310.432C2064.5 307.136 2070.02 304.739 2076.72 303.241C2083.43 301.742 2091.41 300.993 2100.65 300.993C2119.13 300.993 2132.55 304.14 2140.89 310.432C2149.39 316.575 2153.64 327.064 2153.64 341.897V421.457H2124.57V345.493C2124.57 342.047 2124.35 339.05 2123.9 336.503C2123.45 333.956 2122.41 331.858 2120.77 330.21C2119.28 328.412 2116.9 327.139 2113.62 326.389C2110.49 325.49 2106.16 325.041 2100.65 325.041C2095.13 325.041 2090.73 325.49 2087.46 326.389C2084.33 327.139 2081.94 328.412 2080.3 330.21C2078.66 331.858 2077.62 333.956 2077.17 336.503C2076.72 339.05 2076.5 342.047 2076.5 345.493V421.457H2047.43ZM2242.19 421.457H2224.08C2214.69 421.457 2206.94 420.783 2200.83 419.434C2194.87 418.086 2190.1 415.763 2186.52 412.467C2183.09 409.021 2180.71 404.451 2179.36 398.757C2178.02 393.064 2177.35 385.947 2177.35 377.407V277.395L2206.42 272.675V304.589H2248.23L2243.54 328.637H2206.42V375.833C2206.42 380.328 2206.64 383.999 2207.09 386.846C2207.69 389.693 2208.66 391.94 2210 393.588C2211.49 395.087 2213.5 396.135 2216.03 396.735C2218.72 397.184 2222.07 397.409 2226.1 397.409H2246.89L2242.19 421.457ZM2447.88 421.457V307.061L2411.66 376.283H2386.84L2350.39 308.634V421.457H2320.66V261.438H2353.52L2400.26 348.414L2444.53 261.438H2477.62V421.457H2447.88ZM2576.46 400.331V382.126C2576.46 379.429 2576.16 377.182 2575.56 375.384C2575.12 373.436 2574.07 371.863 2572.43 370.664C2570.79 369.466 2568.48 368.642 2565.5 368.192C2562.52 367.593 2558.57 367.293 2553.65 367.293H2550.29C2541.8 367.293 2536.06 368.342 2533.08 370.44C2530.1 372.537 2528.61 376.358 2528.61 381.902V386.172C2528.61 390.966 2529.95 394.562 2532.63 396.96C2535.46 399.207 2540.6 400.331 2548.06 400.331H2576.46ZM2604.63 400.331C2604.63 408.272 2602.84 413.815 2599.27 416.962C2595.69 419.958 2589.5 421.457 2580.7 421.457H2544.26C2528.31 421.457 2516.98 418.46 2510.27 412.467C2503.71 406.474 2500.43 397.859 2500.43 386.621V381.677C2500.43 369.241 2504.08 360.251 2511.39 354.707C2518.69 349.014 2530.1 346.167 2545.6 346.167C2553.35 346.167 2559.76 346.841 2564.83 348.19C2570.05 349.388 2573.92 350.812 2576.46 352.46V348.414C2576.46 344.369 2576.01 340.998 2575.12 338.301C2574.37 335.604 2573.03 333.506 2571.09 332.008C2569.15 330.36 2566.47 329.236 2563.04 328.637C2559.76 328.037 2555.59 327.738 2550.52 327.738C2547.69 327.738 2544.56 327.738 2541.13 327.738C2537.7 327.738 2534.2 327.813 2530.62 327.963C2527.19 327.963 2523.76 328.037 2520.33 328.187C2516.9 328.187 2513.77 328.187 2510.94 328.187L2515.64 304.589C2519.81 304.439 2525.03 304.364 2531.29 304.364C2537.55 304.214 2544.41 304.14 2551.86 304.14C2570.05 304.14 2583.39 307.361 2591.88 313.804C2600.38 320.246 2604.63 330.36 2604.63 344.144V400.331ZM2628.25 421.457V341.897C2628.25 334.555 2629.3 328.262 2631.38 323.018C2633.47 317.774 2636.67 313.579 2640.99 310.432C2645.32 307.136 2650.83 304.739 2657.54 303.241C2664.25 301.742 2672.23 300.993 2681.47 300.993C2699.95 300.993 2713.37 304.14 2721.72 310.432C2730.21 316.575 2734.46 327.064 2734.46 341.897V421.457H2705.39V345.493C2705.39 342.047 2705.17 339.05 2704.72 336.503C2704.28 333.956 2703.23 331.858 2701.59 330.21C2700.1 328.412 2697.72 327.139 2694.44 326.389C2691.31 325.49 2686.98 325.041 2681.47 325.041C2675.95 325.041 2671.55 325.49 2668.27 326.389C2665.14 327.139 2662.76 328.412 2661.12 330.21C2659.48 331.858 2658.43 333.956 2657.99 336.503C2657.54 339.05 2657.32 342.047 2657.32 345.493V421.457H2628.25ZM2830.62 400.331V382.126C2830.62 379.429 2830.32 377.182 2829.73 375.384C2829.28 373.436 2828.24 371.863 2826.6 370.664C2824.96 369.466 2822.64 368.642 2819.66 368.192C2816.68 367.593 2812.73 367.293 2807.81 367.293H2804.46C2795.96 367.293 2790.22 368.342 2787.24 370.44C2784.26 372.537 2782.77 376.358 2782.77 381.902V386.172C2782.77 390.966 2784.11 394.562 2786.8 396.96C2789.63 399.207 2794.77 400.331 2802.22 400.331H2830.62ZM2858.79 400.331C2858.79 408.272 2857 413.815 2853.43 416.962C2849.85 419.958 2843.66 421.457 2834.86 421.457H2798.42C2782.47 421.457 2771.14 418.46 2764.44 412.467C2757.88 406.474 2754.6 397.859 2754.6 386.621V381.677C2754.6 369.241 2758.25 360.251 2765.55 354.707C2772.85 349.014 2784.26 346.167 2799.76 346.167C2807.52 346.167 2813.92 346.841 2818.99 348.19C2824.21 349.388 2828.09 350.812 2830.62 352.46V348.414C2830.62 344.369 2830.17 340.998 2829.28 338.301C2828.53 335.604 2827.19 333.506 2825.25 332.008C2823.32 330.36 2820.63 329.236 2817.2 328.637C2813.92 328.037 2809.75 327.738 2804.68 327.738C2801.85 327.738 2798.72 327.738 2795.29 327.738C2791.86 327.738 2788.36 327.813 2784.78 327.963C2781.35 327.963 2777.92 328.037 2774.49 328.187C2771.06 328.187 2767.93 328.187 2765.1 328.187L2769.8 304.589C2773.98 304.439 2779.19 304.364 2785.45 304.364C2791.71 304.214 2798.57 304.14 2806.02 304.14C2824.21 304.14 2837.55 307.361 2846.04 313.804C2854.54 320.246 2858.79 330.36 2858.79 344.144V400.331ZM2935.41 393.588C2940.78 393.588 2945.1 393.214 2948.38 392.465C2951.66 391.566 2954.26 390.142 2956.2 388.194C2958.14 386.247 2959.41 383.625 2960.01 380.328C2960.75 377.032 2961.12 372.837 2961.12 367.743V356.73C2961.12 350.137 2960.9 344.744 2960.45 340.548C2960.01 336.353 2958.88 333.057 2957.1 330.66C2955.31 328.262 2952.7 326.614 2949.27 325.715C2945.85 324.816 2941.22 324.367 2935.41 324.367C2929.6 324.367 2924.98 324.816 2921.55 325.715C2918.12 326.614 2915.51 328.262 2913.72 330.66C2911.93 333.057 2910.82 336.353 2910.37 340.548C2909.92 344.744 2909.69 350.137 2909.69 356.73V361.225C2909.69 367.817 2909.92 373.211 2910.37 377.407C2910.96 381.602 2912.08 384.898 2913.72 387.295C2915.51 389.693 2918.12 391.341 2921.55 392.24C2924.98 393.139 2929.6 393.588 2935.41 393.588ZM2961.12 408.871C2958.14 411.268 2954.34 413.216 2949.72 414.714C2945.1 416.213 2938.91 416.962 2931.16 416.962C2921.47 416.962 2913.35 415.838 2906.79 413.591C2900.38 411.343 2895.16 407.972 2891.14 403.477C2887.26 398.832 2884.43 393.064 2882.64 386.172C2881 379.28 2880.18 371.264 2880.18 362.124V355.831C2880.18 346.991 2880.92 339.2 2882.42 332.457C2884.05 325.565 2886.97 319.797 2891.14 315.152C2895.31 310.507 2900.9 306.986 2907.9 304.589C2915.06 302.192 2924.15 300.993 2935.18 300.993C2946.36 300.993 2955.53 302.267 2962.69 304.814C2969.84 307.211 2975.43 310.657 2979.45 315.152C2983.63 319.647 2986.46 325.116 2987.95 331.559C2989.44 337.851 2990.19 344.893 2990.19 352.685V410.669C2990.19 419.659 2989.14 427.375 2987.06 433.818C2985.12 440.261 2981.92 445.505 2977.45 449.55C2972.98 453.595 2967.23 456.517 2960.23 458.315C2953.22 460.263 2944.72 461.237 2934.74 461.237C2931.61 461.237 2928.62 461.237 2925.79 461.237C2922.96 461.237 2919.91 461.237 2916.63 461.237C2913.35 461.237 2909.69 461.162 2905.67 461.012C2901.79 461.012 2897.17 460.937 2891.81 460.787L2896.51 437.414C2900.68 437.564 2904.41 437.638 2907.69 437.638C2911.11 437.788 2914.24 437.863 2917.08 437.863C2920.06 437.863 2922.81 437.863 2925.35 437.863C2928.03 437.863 2930.71 437.863 2933.39 437.863C2938.46 437.863 2942.72 437.414 2946.14 436.515C2949.72 435.766 2952.62 434.342 2954.86 432.245C2957.1 430.297 2958.67 427.525 2959.56 423.929C2960.6 420.333 2961.12 415.838 2961.12 410.444V408.871ZM3040.7 372.912C3040.7 378.306 3041 382.726 3041.6 386.172C3042.19 389.618 3043.39 392.315 3045.17 394.263C3047.11 396.21 3049.72 397.559 3053 398.308C3056.27 399.057 3060.6 399.432 3065.96 399.432C3071.18 399.432 3077.14 399.432 3083.85 399.432C3090.56 399.432 3098.84 399.282 3108.67 398.982L3104.2 421.457C3100.03 421.607 3096.3 421.682 3093.02 421.682C3089.74 421.831 3086.53 421.906 3083.4 421.906C3080.42 421.906 3077.44 421.906 3074.46 421.906C3071.48 421.906 3068.2 421.906 3064.62 421.906C3054.04 421.906 3045.32 420.708 3038.47 418.31C3031.61 415.913 3026.16 412.467 3022.14 407.972C3018.26 403.477 3015.51 398.008 3013.87 391.566C3012.38 384.973 3011.64 377.482 3011.64 369.091V356.505C3011.64 347.515 3012.45 339.574 3014.09 332.682C3015.73 325.79 3018.56 320.022 3022.59 315.377C3026.76 310.582 3032.28 306.986 3039.13 304.589C3046.14 302.192 3054.93 300.993 3065.52 300.993C3075.36 300.993 3083.48 302.117 3089.89 304.364C3096.45 306.462 3101.67 309.459 3105.54 313.354C3109.57 317.25 3112.4 321.894 3114.04 327.288C3115.68 332.532 3116.5 338.301 3116.5 344.594V348.414C3116.5 353.509 3116.2 357.704 3115.6 361C3115.01 364.147 3113.96 366.619 3112.47 368.417C3111.13 370.215 3109.34 371.413 3107.11 372.013C3104.87 372.612 3102.12 372.912 3098.84 372.912H3040.7ZM3064.85 323.018C3059.78 323.018 3055.68 323.468 3052.55 324.367C3049.42 325.116 3046.96 326.614 3045.17 328.862C3043.39 330.959 3042.19 333.881 3041.6 337.627C3041 341.223 3040.7 345.867 3040.7 351.561H3088.77V346.392C3088.77 342.047 3088.4 338.376 3087.66 335.379C3086.91 332.383 3085.64 329.985 3083.85 328.187C3082.06 326.389 3079.61 325.116 3076.48 324.367C3073.35 323.468 3069.47 323.018 3064.85 323.018ZM3136.8 421.457V341.447C3136.8 333.956 3137.85 327.663 3139.93 322.569C3142.02 317.325 3145.07 313.129 3149.1 309.983C3153.27 306.836 3158.34 304.589 3164.3 303.241C3170.26 301.742 3177.12 300.993 3184.87 300.993C3192.92 300.993 3200.01 302.117 3206.12 304.364C3212.38 306.612 3217.22 309.833 3220.65 314.028C3224.08 309.833 3228.92 306.612 3235.19 304.364C3241.45 302.117 3248.67 300.993 3256.87 300.993C3264.47 300.993 3271.26 301.742 3277.22 303.241C3283.18 304.589 3288.17 306.836 3292.2 309.983C3296.37 313.129 3299.5 317.325 3301.59 322.569C3303.68 327.663 3304.72 333.956 3304.72 341.447V421.457H3275.65V345.493C3275.65 342.047 3275.43 339.05 3274.99 336.503C3274.69 333.956 3273.86 331.858 3272.52 330.21C3271.18 328.412 3269.09 327.139 3266.26 326.389C3263.58 325.49 3259.93 325.041 3255.31 325.041C3250.99 325.041 3247.56 325.415 3245.02 326.165C3242.49 326.914 3240.47 328.037 3238.98 329.536C3237.49 331.034 3236.53 332.907 3236.08 335.154C3235.63 337.402 3235.4 340.024 3235.4 343.021V421.457H3206.34V345.493C3206.34 342.047 3206.12 339.05 3205.67 336.503C3205.37 333.956 3204.48 331.858 3202.99 330.21C3201.65 328.412 3199.63 327.139 3196.95 326.389C3194.26 325.49 3190.62 325.041 3185.99 325.041C3181.37 325.041 3177.72 325.49 3175.03 326.389C3172.35 327.139 3170.34 328.412 3169 330.21C3167.66 331.858 3166.77 333.956 3166.32 336.503C3166.02 339.05 3165.87 342.047 3165.87 345.493V421.457H3136.8ZM3355.35 372.912C3355.35 378.306 3355.65 382.726 3356.24 386.172C3356.84 389.618 3358.03 392.315 3359.82 394.263C3361.76 396.21 3364.36 397.559 3367.64 398.308C3370.92 399.057 3375.24 399.432 3380.61 399.432C3385.83 399.432 3391.79 399.432 3398.5 399.432C3405.2 399.432 3413.48 399.282 3423.32 398.982L3418.85 421.457C3414.67 421.607 3410.95 421.682 3407.67 421.682C3404.39 421.831 3401.18 421.906 3398.05 421.906C3395.07 421.906 3392.09 421.906 3389.11 421.906C3386.12 421.906 3382.85 421.906 3379.27 421.906C3368.68 421.906 3359.97 420.708 3353.11 418.31C3346.25 415.913 3340.81 412.467 3336.79 407.972C3332.91 403.477 3330.16 398.008 3328.52 391.566C3327.03 384.973 3326.28 377.482 3326.28 369.091V356.505C3326.28 347.515 3327.1 339.574 3328.74 332.682C3330.38 325.79 3333.21 320.022 3337.23 315.377C3341.41 310.582 3346.92 306.986 3353.78 304.589C3360.78 302.192 3369.58 300.993 3380.16 300.993C3390 300.993 3398.13 302.117 3404.54 304.364C3411.1 306.462 3416.31 309.459 3420.19 313.354C3424.21 317.25 3427.05 321.894 3428.69 327.288C3430.33 332.532 3431.14 338.301 3431.14 344.594V348.414C3431.14 353.509 3430.84 357.704 3430.25 361C3429.65 364.147 3428.61 366.619 3427.12 368.417C3425.78 370.215 3423.99 371.413 3421.75 372.013C3419.51 372.612 3416.76 372.912 3413.48 372.912H3355.35ZM3379.5 323.018C3374.43 323.018 3370.32 323.468 3367.19 324.367C3364.06 325.116 3361.61 326.614 3359.82 328.862C3358.03 330.959 3356.84 333.881 3356.24 337.627C3355.65 341.223 3355.35 345.867 3355.35 351.561H3403.42V346.392C3403.42 342.047 3403.05 338.376 3402.3 335.379C3401.56 332.383 3400.29 329.985 3398.5 328.187C3396.71 326.389 3394.25 325.116 3391.12 324.367C3387.99 323.468 3384.12 323.018 3379.5 323.018ZM3451.45 421.457V341.897C3451.45 334.555 3452.49 328.262 3454.58 323.018C3456.67 317.774 3459.87 313.579 3464.19 310.432C3468.51 307.136 3474.03 304.739 3480.74 303.241C3487.44 301.742 3495.42 300.993 3504.66 300.993C3523.15 300.993 3536.56 304.14 3544.91 310.432C3553.41 316.575 3557.65 327.064 3557.65 341.897V421.457H3528.59V345.493C3528.59 342.047 3528.37 339.05 3527.92 336.503C3527.47 333.956 3526.43 331.858 3524.79 330.21C3523.3 328.412 3520.91 327.139 3517.63 326.389C3514.5 325.49 3510.18 325.041 3504.66 325.041C3499.15 325.041 3494.75 325.49 3491.47 326.389C3488.34 327.139 3485.95 328.412 3484.31 330.21C3482.67 331.858 3481.63 333.956 3481.18 336.503C3480.74 339.05 3480.52 342.047 3480.52 345.493V421.457H3451.45ZM3646.21 421.457H3628.1C3618.71 421.457 3610.96 420.783 3604.84 419.434C3598.88 418.086 3594.11 415.763 3590.53 412.467C3587.11 409.021 3584.72 404.451 3583.38 398.757C3582.04 393.064 3581.37 385.947 3581.37 377.407V277.395L3610.44 272.675V304.589H3652.25L3647.55 328.637H3610.44V375.833C3610.44 380.328 3610.66 383.999 3611.1 386.846C3611.7 389.693 3612.67 391.94 3614.02 393.588C3615.51 395.087 3617.51 396.135 3620.05 396.735C3622.73 397.184 3626.09 397.409 3630.11 397.409H3650.9L3646.21 421.457Z" fill="white" />
    </g>
    <g clip-path="url(#clip1_2176_222)">
        <path d="M799.989 512.206L786.498 581.805H782.481L795.972 512.206H770.226L771.771 508.391H826.662L825.117 512.206H799.989ZM818.95 556.646C818.675 558.021 818.469 559.327 818.332 560.564C818.263 561.733 818.229 562.867 818.229 563.967C818.229 568.641 819.499 572.215 822.04 574.69C824.649 577.096 829.077 578.299 835.325 578.299C837.934 578.299 840.371 578.299 842.637 578.299C844.902 578.23 847.202 578.127 849.537 577.99L847.992 581.701C845.795 581.839 843.735 581.908 841.813 581.908C839.959 581.976 837.831 582.011 835.428 582.011C831.583 582.011 828.322 581.598 825.644 580.773C822.966 579.949 820.804 578.78 819.156 577.268C817.508 575.756 816.307 573.9 815.552 571.7C814.796 569.5 814.419 567.026 814.419 564.276C814.419 560.839 814.865 557.23 815.757 553.45C816.856 548.569 818.16 544.479 819.671 541.18C821.25 537.812 823.104 535.096 825.232 533.034C827.429 530.972 829.901 529.494 832.647 528.601C835.462 527.707 838.689 527.26 842.328 527.26C845.417 527.26 848.026 527.569 850.154 528.188C852.351 528.738 854.136 529.563 855.51 530.663C856.951 531.694 857.981 532.965 858.599 534.478C859.217 535.99 859.526 537.64 859.526 539.427C859.526 540.939 859.32 542.52 858.908 544.17C857.947 548.432 855.922 551.594 852.832 553.656C849.742 555.649 844.937 556.646 838.414 556.646H818.95ZM842.225 530.869C839.135 530.869 836.389 531.281 833.986 532.106C831.583 532.862 829.489 534.134 827.704 535.921C825.919 537.64 824.34 539.908 822.966 542.726C821.662 545.545 820.563 549.016 819.671 553.14H838.311C840.989 553.14 843.289 553.003 845.211 552.728C847.134 552.384 848.713 551.834 849.948 551.078C851.253 550.322 852.283 549.36 853.038 548.191C853.862 546.954 854.48 545.442 854.892 543.654C855.235 542.073 855.407 540.733 855.407 539.633C855.407 536.952 854.411 534.821 852.42 533.24C850.498 531.659 847.099 530.869 842.225 530.869ZM899.946 569.844C900.083 569.157 900.186 568.538 900.255 567.988C900.392 567.369 900.461 566.785 900.461 566.235C900.461 562.248 897.714 559.499 892.222 557.986L880.482 554.687C876.706 553.587 874.062 552.109 872.552 550.253C871.11 548.329 870.389 546.198 870.389 543.861C870.389 542.555 870.526 541.352 870.801 540.252C871.35 537.846 872.209 535.887 873.376 534.375C874.611 532.862 876.088 531.694 877.804 530.869C879.589 530.044 881.614 529.494 883.88 529.219C886.214 528.875 888.755 528.704 891.501 528.704C892.188 528.704 893.183 528.704 894.488 528.704C895.792 528.704 897.268 528.738 898.916 528.807C900.564 528.807 902.28 528.841 904.065 528.91C905.919 528.979 907.773 529.047 909.626 529.116L908.185 532.828C906.743 532.759 905.095 532.725 903.241 532.725C901.456 532.656 899.671 532.622 897.886 532.622C896.101 532.553 894.453 532.519 892.943 532.519C891.501 532.45 890.368 532.416 889.544 532.416C885.082 532.416 881.649 533.034 879.246 534.271C876.843 535.44 875.298 537.571 874.612 540.664C874.474 541.214 874.371 541.73 874.303 542.211C874.234 542.692 874.2 543.173 874.2 543.654C874.2 545.442 874.783 546.954 875.95 548.191C877.117 549.36 879.177 550.356 882.129 551.181L893.149 554.275C897.2 555.443 900.083 556.955 901.799 558.811C903.516 560.667 904.374 563.004 904.374 565.823C904.374 566.373 904.305 567.129 904.168 568.091C904.031 569.053 903.859 569.947 903.653 570.772C903.241 572.422 902.623 573.934 901.799 575.309C901.044 576.684 899.877 577.886 898.298 578.918C896.788 579.88 894.797 580.636 892.325 581.186C889.853 581.736 886.729 582.011 882.953 582.011C879.452 582.011 876.191 582.011 873.17 582.011C870.217 582.011 867.025 581.942 863.592 581.805L865.137 578.093C867.403 578.161 869.325 578.23 870.904 578.299C872.483 578.299 873.891 578.299 875.126 578.299C876.431 578.299 877.667 578.299 878.834 578.299C880.07 578.299 881.477 578.299 883.056 578.299C886.352 578.299 889.029 578.093 891.089 577.68C893.149 577.268 894.762 576.684 895.929 575.927C897.165 575.171 898.058 574.278 898.607 573.247C899.156 572.215 899.602 571.081 899.946 569.844ZM928.955 528.91H950.479L948.934 532.519H928.234L922.261 563.554C921.849 565.823 921.643 567.747 921.643 569.328C921.643 572.697 922.57 574.999 924.423 576.237C926.277 577.474 929.161 578.093 933.074 578.093H940.901L939.356 581.805H933.177C928.165 581.805 924.32 580.98 921.643 579.33C919.034 577.68 917.729 574.553 917.729 569.947C917.729 567.816 917.97 565.548 918.45 563.142L927.719 515.196L931.735 514.475L928.955 528.91ZM957.738 556.646C957.463 558.021 957.257 559.327 957.12 560.564C957.051 561.733 957.017 562.867 957.017 563.967C957.017 568.641 958.287 572.215 960.828 574.69C963.437 577.096 967.865 578.299 974.113 578.299C976.722 578.299 979.159 578.299 981.425 578.299C983.69 578.23 985.99 578.127 988.325 577.99L986.78 581.701C984.583 581.839 982.523 581.908 980.601 581.908C978.747 581.976 976.619 582.011 974.216 582.011C970.371 582.011 967.11 581.598 964.432 580.773C961.754 579.949 959.592 578.78 957.944 577.268C956.296 575.756 955.095 573.9 954.34 571.7C953.584 569.5 953.207 567.026 953.207 564.276C953.207 560.839 953.653 557.23 954.545 553.45C955.644 548.569 956.948 544.479 958.459 541.18C960.038 537.812 961.892 535.096 964.02 533.034C966.217 530.972 968.689 529.494 971.435 528.601C974.25 527.707 977.477 527.26 981.116 527.26C984.205 527.26 986.814 527.569 988.942 528.188C991.139 528.738 992.925 529.563 994.298 530.663C995.739 531.694 996.769 532.965 997.387 534.478C998.005 535.99 998.314 537.64 998.314 539.427C998.314 540.939 998.108 542.52 997.696 544.17C996.735 548.432 994.71 551.594 991.62 553.656C988.53 555.649 983.725 556.646 977.202 556.646H957.738ZM981.013 530.869C977.923 530.869 975.177 531.281 972.774 532.106C970.371 532.862 968.277 534.134 966.492 535.921C964.707 537.64 963.128 539.908 961.754 542.726C960.45 545.545 959.351 549.016 958.459 553.14H977.099C979.777 553.14 982.077 553.003 983.999 552.728C985.922 552.384 987.501 551.834 988.736 551.078C990.041 550.322 991.071 549.36 991.826 548.191C992.65 546.954 993.268 545.442 993.68 543.654C994.023 542.073 994.195 540.733 994.195 539.633C994.195 536.952 993.199 534.821 991.208 533.24C989.286 531.659 985.887 530.869 981.013 530.869ZM1043.91 528.91H1065.43L1063.89 532.519H1043.19L1037.21 563.554C1036.8 565.823 1036.6 567.747 1036.6 569.328C1036.6 572.697 1037.52 574.999 1039.38 576.237C1041.23 577.474 1044.11 578.093 1048.03 578.093H1055.85L1054.31 581.805H1048.13C1043.12 581.805 1039.27 580.98 1036.6 579.33C1033.99 577.68 1032.68 574.553 1032.68 569.947C1032.68 567.816 1032.92 565.548 1033.4 563.142L1042.67 515.196L1046.69 514.475L1043.91 528.91ZM1072.69 556.646C1072.42 558.021 1072.21 559.327 1072.07 560.564C1072 561.733 1071.97 562.867 1071.97 563.967C1071.97 568.641 1073.24 572.215 1075.78 574.69C1078.39 577.096 1082.82 578.299 1089.07 578.299C1091.67 578.299 1094.11 578.299 1096.38 578.299C1098.64 578.23 1100.94 578.127 1103.28 577.99L1101.73 581.701C1099.54 581.839 1097.48 581.908 1095.55 581.908C1093.7 581.976 1091.57 582.011 1089.17 582.011C1085.32 582.011 1082.06 581.598 1079.38 580.773C1076.71 579.949 1074.54 578.78 1072.9 577.268C1071.25 575.756 1070.05 573.9 1069.29 571.7C1068.54 569.5 1068.16 567.026 1068.16 564.276C1068.16 560.839 1068.61 557.23 1069.5 553.45C1070.6 548.569 1071.9 544.479 1073.41 541.18C1074.99 537.812 1076.84 535.096 1078.97 533.034C1081.17 530.972 1083.64 529.494 1086.39 528.601C1089.2 527.707 1092.43 527.26 1096.07 527.26C1099.16 527.26 1101.77 527.569 1103.9 528.188C1106.09 528.738 1107.88 529.563 1109.25 530.663C1110.69 531.694 1111.72 532.965 1112.34 534.478C1112.96 535.99 1113.27 537.64 1113.27 539.427C1113.27 540.939 1113.06 542.52 1112.65 544.17C1111.69 548.432 1109.66 551.594 1106.57 553.656C1103.48 555.649 1098.68 556.646 1092.16 556.646H1072.69ZM1095.97 530.869C1092.88 530.869 1090.13 531.281 1087.73 532.106C1085.32 532.862 1083.23 534.134 1081.44 535.921C1079.66 537.64 1078.08 539.908 1076.71 542.726C1075.4 545.545 1074.3 549.016 1073.41 553.14H1092.05C1094.73 553.14 1097.03 553.003 1098.95 552.728C1100.87 552.384 1102.45 551.834 1103.69 551.078C1104.99 550.322 1106.02 549.36 1106.78 548.191C1107.6 546.954 1108.22 545.442 1108.63 543.654C1108.98 542.073 1109.15 540.733 1109.15 539.633C1109.15 536.952 1108.15 534.821 1106.16 533.24C1104.24 531.659 1100.84 530.869 1095.97 530.869ZM1106.57 507.051H1112.13L1096.07 520.042H1091.43L1106.57 507.051ZM1142.18 578.299C1143.96 578.299 1145.75 578.299 1147.53 578.299C1149.32 578.23 1151.1 578.161 1152.89 578.093L1151.34 581.805C1149.97 581.942 1148.32 582.011 1146.4 582.011C1144.48 582.011 1142.83 582.011 1141.46 582.011C1137.68 582.011 1134.49 581.633 1131.88 580.877C1129.27 580.052 1127.14 578.883 1125.49 577.371C1123.85 575.859 1122.64 574.037 1121.89 571.906C1121.2 569.707 1120.86 567.198 1120.86 564.379C1120.86 561.08 1121.27 557.471 1122.09 553.553C1123.12 548.329 1124.5 544.101 1126.21 540.87C1127.93 537.64 1129.96 535.131 1132.29 533.344C1134.69 531.556 1137.44 530.353 1140.53 529.735C1143.62 529.047 1147.05 528.704 1150.83 528.704C1151.79 528.704 1153.26 528.738 1155.26 528.807C1157.25 528.807 1159.17 528.841 1161.02 528.91L1159.48 532.622C1158.31 532.553 1156.94 532.519 1155.36 532.519C1153.85 532.45 1152.17 532.416 1150.31 532.416C1146.81 532.416 1143.76 532.725 1141.15 533.344C1138.54 533.893 1136.27 534.959 1134.35 536.54C1132.43 538.052 1130.78 540.217 1129.41 543.036C1128.1 545.785 1127 549.36 1126.11 553.759C1125.29 557.815 1124.88 561.252 1124.88 564.07C1124.88 566.957 1125.25 569.328 1126.01 571.184C1126.83 572.972 1127.96 574.415 1129.41 575.515C1130.92 576.546 1132.74 577.268 1134.86 577.68C1137.06 578.093 1139.5 578.299 1142.18 578.299ZM1165.37 581.805L1171.96 547.676C1173.33 540.458 1175.8 535.268 1179.37 532.106C1183.01 528.875 1188.3 527.26 1195.23 527.26C1202.1 527.26 1206.97 528.601 1209.86 531.281C1212.81 533.893 1214.28 537.537 1214.28 542.211C1214.28 543.242 1214.22 544.342 1214.08 545.51C1213.94 546.61 1213.77 547.744 1213.57 548.913L1207.18 581.805H1203.27L1209.75 548.397C1210.17 546.266 1210.37 544.342 1210.37 542.623C1210.37 538.155 1209 535.096 1206.25 533.447C1203.57 531.797 1199.83 530.972 1195.03 530.972C1192.14 530.972 1189.64 531.281 1187.51 531.9C1185.38 532.45 1183.56 533.412 1182.05 534.787C1180.54 536.093 1179.27 537.812 1178.24 539.942C1177.28 542.073 1176.49 544.72 1175.87 547.882L1169.28 581.805H1165.37ZM1233.5 528.91H1237.41L1227.11 581.805H1223.2L1233.5 528.91ZM1238.44 510.35C1240.36 510.35 1241.32 511.381 1241.32 513.444C1241.32 516.193 1240.12 517.568 1237.72 517.568C1235.73 517.568 1234.73 516.537 1234.73 514.475C1234.73 511.725 1235.97 510.35 1238.44 510.35ZM1266.38 578.299C1268.17 578.299 1269.95 578.299 1271.74 578.299C1273.52 578.23 1275.31 578.161 1277.09 578.093L1275.55 581.805C1274.17 581.942 1272.53 582.011 1270.6 582.011C1268.68 582.011 1267.03 582.011 1265.66 582.011C1261.88 582.011 1258.69 581.633 1256.08 580.877C1253.48 580.052 1251.35 578.883 1249.7 577.371C1248.05 575.859 1246.85 574.037 1246.09 571.906C1245.41 569.707 1245.06 567.198 1245.06 564.379C1245.06 561.08 1245.47 557.471 1246.3 553.553C1247.33 548.329 1248.7 544.101 1250.42 540.87C1252.13 537.64 1254.16 535.131 1256.5 533.344C1258.9 531.556 1261.65 530.353 1264.73 529.735C1267.82 529.047 1271.26 528.704 1275.03 528.704C1275.99 528.704 1277.47 528.738 1279.46 528.807C1281.45 528.807 1283.37 528.841 1285.23 528.91L1283.68 532.622C1282.52 532.553 1281.14 532.519 1279.56 532.519C1278.05 532.45 1276.37 532.416 1274.52 532.416C1271.01 532.416 1267.96 532.725 1265.35 533.344C1262.74 533.893 1260.48 534.959 1258.56 536.54C1256.63 538.052 1254.99 540.217 1253.61 543.036C1252.31 545.785 1251.21 549.36 1250.32 553.759C1249.49 557.815 1249.08 561.252 1249.08 564.07C1249.08 566.957 1249.46 569.328 1250.21 571.184C1251.04 572.972 1252.17 574.415 1253.61 575.515C1255.12 576.546 1256.94 577.268 1259.07 577.68C1261.27 578.093 1263.71 578.299 1266.38 578.299ZM1309.38 583.454C1306.36 583.454 1303.65 583.111 1301.25 582.423C1298.85 581.805 1296.82 580.774 1295.17 579.33C1293.52 577.886 1292.25 575.996 1291.36 573.659C1290.47 571.253 1290.02 568.332 1290.02 564.895C1290.02 563.314 1290.09 561.63 1290.23 559.842C1290.43 557.986 1290.74 556.027 1291.16 553.965C1291.98 549.36 1293.04 545.407 1294.35 542.108C1295.72 538.74 1297.44 535.956 1299.5 533.756C1301.56 531.556 1304.06 529.941 1307.02 528.91C1309.97 527.81 1313.5 527.26 1317.62 527.26C1320.64 527.26 1323.36 527.604 1325.76 528.291C1328.16 528.91 1330.18 529.941 1331.83 531.384C1333.48 532.828 1334.75 534.753 1335.65 537.159C1336.54 539.496 1336.98 542.383 1336.98 545.82C1336.98 547.401 1336.88 549.119 1336.67 550.975C1336.54 552.762 1336.26 554.687 1335.85 556.749C1335.03 561.355 1333.93 565.342 1332.56 568.71C1331.25 572.009 1329.57 574.759 1327.51 576.958C1325.45 579.158 1322.94 580.774 1319.99 581.805C1317.04 582.904 1313.5 583.454 1309.38 583.454ZM1309.9 579.742C1313.06 579.742 1315.8 579.364 1318.14 578.608C1320.54 577.852 1322.6 576.615 1324.32 574.896C1326.03 573.109 1327.47 570.772 1328.64 567.885C1329.88 564.929 1330.91 561.286 1331.73 556.955C1332.14 554.756 1332.45 552.694 1332.66 550.769C1332.93 548.844 1333.07 547.091 1333.07 545.51C1333.07 540.149 1331.76 536.402 1329.15 534.271C1326.61 532.072 1322.6 530.972 1317.11 530.972C1313.95 530.972 1311.17 531.35 1308.76 532.106C1306.43 532.862 1304.41 534.134 1302.69 535.921C1300.97 537.64 1299.5 539.977 1298.26 542.933C1297.09 545.82 1296.1 549.428 1295.27 553.759C1294.86 555.959 1294.52 558.021 1294.25 559.946C1294.04 561.87 1293.93 563.623 1293.93 565.204C1293.93 570.566 1295.21 574.346 1297.75 576.546C1300.36 578.677 1304.41 579.742 1309.9 579.742ZM1394.12 583.454C1389.66 583.454 1385.81 582.698 1382.59 581.186C1379.43 579.674 1377.26 576.958 1376.1 573.04L1370.85 599.849H1366.93L1375.89 553.965C1376.78 549.291 1377.88 545.27 1379.19 541.902C1380.56 538.533 1382.24 535.784 1384.23 533.653C1386.22 531.453 1388.66 529.838 1391.54 528.807C1394.43 527.776 1397.86 527.26 1401.84 527.26C1404.86 527.26 1407.58 527.604 1409.98 528.291C1412.45 528.91 1414.51 529.941 1416.16 531.384C1417.88 532.828 1419.18 534.753 1420.07 537.159C1420.96 539.496 1421.41 542.417 1421.41 545.923C1421.41 547.504 1421.31 549.188 1421.1 550.975C1420.96 552.762 1420.69 554.687 1420.28 556.749C1419.45 561.355 1418.36 565.342 1416.98 568.71C1415.68 572.009 1413.99 574.759 1411.93 576.958C1409.87 579.158 1407.37 580.774 1404.42 581.805C1401.54 582.904 1398.1 583.454 1394.12 583.454ZM1394.33 579.742C1397.48 579.742 1400.23 579.364 1402.57 578.608C1404.97 577.852 1407.03 576.615 1408.74 574.896C1410.46 573.109 1411.9 570.772 1413.07 567.885C1414.31 564.929 1415.34 561.286 1416.16 556.955C1416.98 552.625 1417.39 548.947 1417.39 545.923C1417.39 540.492 1416.09 536.643 1413.48 534.375C1410.94 532.106 1406.96 530.972 1401.54 530.972C1398.38 530.972 1395.59 531.35 1393.19 532.106C1390.86 532.862 1388.83 534.134 1387.12 535.921C1385.4 537.64 1383.92 539.977 1382.69 542.933C1381.52 545.82 1380.53 549.428 1379.7 553.759C1379.29 555.959 1378.95 558.021 1378.67 559.946C1378.47 561.87 1378.36 563.623 1378.36 565.204C1378.36 570.566 1379.63 574.346 1382.17 576.546C1384.78 578.677 1388.83 579.742 1394.33 579.742ZM1450.48 583.454C1447.46 583.454 1444.75 583.111 1442.35 582.423C1439.95 581.805 1437.92 580.774 1436.27 579.33C1434.62 577.886 1433.36 575.996 1432.46 573.659C1431.57 571.253 1431.12 568.332 1431.12 564.895C1431.12 563.314 1431.19 561.63 1431.33 559.842C1431.53 557.986 1431.85 556.027 1432.26 553.965C1433.08 549.36 1434.14 545.407 1435.45 542.108C1436.82 538.74 1438.54 535.956 1440.6 533.756C1442.66 531.556 1445.16 529.941 1448.12 528.91C1451.07 527.81 1454.6 527.26 1458.72 527.26C1461.74 527.26 1464.46 527.604 1466.86 528.291C1469.26 528.91 1471.29 529.941 1472.93 531.384C1474.58 532.828 1475.85 534.753 1476.75 537.159C1477.64 539.496 1478.08 542.383 1478.08 545.82C1478.08 547.401 1477.98 549.119 1477.78 550.975C1477.64 552.762 1477.36 554.687 1476.95 556.749C1476.13 561.355 1475.03 565.342 1473.66 568.71C1472.35 572.009 1470.67 574.759 1468.61 576.958C1466.55 579.158 1464.04 580.774 1461.09 581.805C1458.14 582.904 1454.6 583.454 1450.48 583.454ZM1451 579.742C1454.16 579.742 1456.9 579.364 1459.24 578.608C1461.64 577.852 1463.7 576.615 1465.42 574.896C1467.13 573.109 1468.58 570.772 1469.74 567.885C1470.98 564.929 1472.01 561.286 1472.83 556.955C1473.24 554.756 1473.55 552.694 1473.76 550.769C1474.03 548.844 1474.17 547.091 1474.17 545.51C1474.17 540.149 1472.87 536.402 1470.26 534.271C1467.72 532.072 1463.7 530.972 1458.21 530.972C1455.05 530.972 1452.27 531.35 1449.87 532.106C1447.53 532.862 1445.51 534.134 1443.79 535.921C1442.07 537.64 1440.6 539.977 1439.36 542.933C1438.19 545.82 1437.2 549.428 1436.38 553.759C1435.96 555.959 1435.62 558.021 1435.35 559.946C1435.14 561.87 1435.04 563.623 1435.04 565.204C1435.04 570.566 1436.31 574.346 1438.85 576.546C1441.46 578.677 1445.51 579.742 1451 579.742ZM1489.7 581.805H1485.79L1492.38 548.088C1493.2 543.964 1494.3 540.63 1495.68 538.087C1497.05 535.543 1498.7 533.584 1500.62 532.209C1502.54 530.835 1504.7 529.907 1507.1 529.425C1509.51 528.944 1512.15 528.704 1515.04 528.704C1515.59 528.704 1516.24 528.704 1516.99 528.704C1517.75 528.704 1518.5 528.738 1519.26 528.807C1520.01 528.807 1520.74 528.841 1521.42 528.91C1522.11 528.91 1522.66 528.91 1523.07 528.91L1521.52 532.622C1520.63 532.553 1519.5 532.519 1518.13 532.519C1516.75 532.45 1515.59 532.416 1514.62 532.416C1512.22 532.416 1510.02 532.622 1508.03 533.034C1506.04 533.378 1504.26 534.134 1502.68 535.303C1501.17 536.471 1499.86 538.121 1498.76 540.252C1497.67 542.314 1496.81 545.064 1496.19 548.5L1489.7 581.805ZM1560.57 550.15L1554.39 581.805H1550.37L1564.69 508.391H1584.87C1592.56 508.391 1598.36 509.663 1602.27 512.206C1606.19 514.681 1608.15 518.84 1608.15 524.682C1608.15 525.507 1608.08 526.401 1607.94 527.363C1607.87 528.326 1607.77 529.288 1607.63 530.25C1607.01 534.1 1605.95 537.33 1604.44 539.942C1602.93 542.486 1601.01 544.514 1598.67 546.026C1596.41 547.538 1593.69 548.604 1590.53 549.222C1587.38 549.841 1583.84 550.15 1579.93 550.15H1560.57ZM1567.88 512.206L1561.29 546.335H1580.03C1583.74 546.335 1586.93 546.095 1589.61 545.613C1592.29 545.064 1594.55 544.204 1596.41 543.036C1598.26 541.798 1599.73 540.183 1600.83 538.19C1601.93 536.196 1602.79 533.756 1603.41 530.869C1603.62 529.769 1603.79 528.738 1603.92 527.776C1604.06 526.813 1604.13 525.885 1604.13 524.992C1604.13 522.517 1603.68 520.455 1602.79 518.805C1601.9 517.155 1600.59 515.849 1598.88 514.887C1597.16 513.856 1595.1 513.169 1592.7 512.825C1590.3 512.412 1587.55 512.206 1584.46 512.206H1567.88ZM1616.68 556.646C1616.41 558.021 1616.2 559.327 1616.06 560.564C1615.99 561.733 1615.96 562.867 1615.96 563.967C1615.96 568.641 1617.23 572.215 1619.77 574.69C1622.38 577.096 1626.81 578.299 1633.05 578.299C1635.66 578.299 1638.1 578.299 1640.37 578.299C1642.63 578.23 1644.93 578.127 1647.26 577.99L1645.72 581.701C1643.53 581.839 1641.47 581.908 1639.54 581.908C1637.69 581.976 1635.56 582.011 1633.16 582.011C1629.31 582.011 1626.05 581.598 1623.37 580.773C1620.69 579.949 1618.53 578.78 1616.89 577.268C1615.24 575.756 1614.04 573.9 1613.28 571.7C1612.52 569.5 1612.15 567.026 1612.15 564.276C1612.15 560.839 1612.59 557.23 1613.49 553.45C1614.58 548.569 1615.89 544.479 1617.4 541.18C1618.98 537.812 1620.83 535.096 1622.96 533.034C1625.16 530.972 1627.63 529.494 1630.38 528.601C1633.19 527.707 1636.42 527.26 1640.06 527.26C1643.15 527.26 1645.75 527.569 1647.88 528.188C1650.08 528.738 1651.86 529.563 1653.24 530.663C1654.68 531.694 1655.71 532.965 1656.33 534.478C1656.95 535.99 1657.26 537.64 1657.26 539.427C1657.26 540.939 1657.05 542.52 1656.64 544.17C1655.68 548.432 1653.65 551.594 1650.56 553.656C1647.47 555.649 1642.66 556.646 1636.14 556.646H1616.68ZM1639.96 530.869C1636.87 530.869 1634.12 531.281 1631.72 532.106C1629.31 532.862 1627.22 534.134 1625.43 535.921C1623.65 537.64 1622.07 539.908 1620.69 542.726C1619.39 545.545 1618.29 549.016 1617.4 553.14H1636.04C1638.72 553.14 1641.02 553.003 1642.94 552.728C1644.86 552.384 1646.44 551.834 1647.68 551.078C1648.98 550.322 1650.01 549.36 1650.77 548.191C1651.59 546.954 1652.21 545.442 1652.62 543.654C1652.96 542.073 1653.14 540.733 1653.14 539.633C1653.14 536.952 1652.14 534.821 1650.15 533.24C1648.23 531.659 1644.83 530.869 1639.96 530.869ZM1677.1 528.91H1698.63L1697.08 532.519H1676.38L1670.41 563.554C1670 565.823 1669.79 567.747 1669.79 569.328C1669.79 572.697 1670.72 574.999 1672.57 576.237C1674.42 577.474 1677.31 578.093 1681.22 578.093H1689.05L1687.51 581.805H1681.33C1676.31 581.805 1672.47 580.98 1669.79 579.33C1667.18 577.68 1665.88 574.553 1665.88 569.947C1665.88 567.816 1666.12 565.548 1666.6 563.142L1675.87 515.196L1679.88 514.475L1677.1 528.91ZM1705.89 556.646C1705.61 558.021 1705.41 559.327 1705.27 560.564C1705.2 561.733 1705.17 562.867 1705.17 563.967C1705.17 568.641 1706.43 572.215 1708.98 574.69C1711.58 577.096 1716.01 578.299 1722.26 578.299C1724.87 578.299 1727.31 578.299 1729.57 578.299C1731.84 578.23 1734.14 578.127 1736.47 577.99L1734.93 581.701C1732.73 581.839 1730.67 581.908 1728.75 581.908C1726.89 581.976 1724.77 582.011 1722.36 582.011C1718.52 582.011 1715.26 581.598 1712.58 580.773C1709.9 579.949 1707.74 578.78 1706.09 577.268C1704.44 575.756 1703.24 573.9 1702.49 571.7C1701.73 569.5 1701.35 567.026 1701.35 564.276C1701.35 560.839 1701.8 557.23 1702.7 553.45C1703.79 548.569 1705.1 544.479 1706.61 541.18C1708.19 537.812 1710.04 535.096 1712.17 533.034C1714.37 530.972 1716.84 529.494 1719.58 528.601C1722.4 527.707 1725.63 527.26 1729.27 527.26C1732.35 527.26 1734.96 527.569 1737.09 528.188C1739.29 528.738 1741.07 529.563 1742.45 530.663C1743.89 531.694 1744.92 532.965 1745.54 534.478C1746.15 535.99 1746.46 537.64 1746.46 539.427C1746.46 540.939 1746.26 542.52 1745.84 544.17C1744.88 548.432 1742.86 551.594 1739.77 553.656C1736.68 555.649 1731.87 556.646 1725.35 556.646H1705.89ZM1729.16 530.869C1726.07 530.869 1723.32 531.281 1720.92 532.106C1718.52 532.862 1716.43 534.134 1714.64 535.921C1712.86 537.64 1711.28 539.908 1709.9 542.726C1708.6 545.545 1707.5 549.016 1706.61 553.14H1725.25C1727.92 553.14 1730.23 553.003 1732.15 552.728C1734.07 552.384 1735.65 551.834 1736.89 551.078C1738.19 550.322 1739.22 549.36 1739.98 548.191C1740.8 546.954 1741.42 545.442 1741.83 543.654C1742.17 542.073 1742.34 540.733 1742.34 539.633C1742.34 536.952 1741.35 534.821 1739.36 533.24C1737.44 531.659 1734.03 530.869 1729.16 530.869ZM1756.11 581.805H1752.2L1758.79 548.088C1759.62 543.964 1760.71 540.63 1762.09 538.087C1763.46 535.543 1765.11 533.584 1767.03 532.209C1768.95 530.835 1771.12 529.907 1773.52 529.425C1775.92 528.944 1778.56 528.704 1781.45 528.704C1782 528.704 1782.65 528.704 1783.41 528.704C1784.16 528.704 1784.92 528.738 1785.67 528.807C1786.43 528.807 1787.15 528.841 1787.83 528.91C1788.52 528.91 1789.07 528.91 1789.48 528.91L1787.94 532.622C1787.05 532.553 1785.91 532.519 1784.54 532.519C1783.16 532.45 1782 532.416 1781.04 532.416C1778.63 532.416 1776.44 532.622 1774.45 533.034C1772.45 533.378 1770.67 534.134 1769.09 535.303C1767.58 536.471 1766.28 538.121 1765.18 540.252C1764.08 542.314 1763.22 545.064 1762.6 548.5L1756.11 581.805ZM1883.73 508.391L1869.41 581.805H1865.81L1833.57 514.578L1820.59 581.805H1816.79L1831.1 508.391H1834.71L1866.84 575.721L1879.91 508.391H1883.73ZM1907.48 583.454C1904.46 583.454 1901.75 583.111 1899.34 582.423C1896.94 581.805 1894.92 580.774 1893.27 579.33C1891.62 577.886 1890.35 575.996 1889.46 573.659C1888.56 571.253 1888.12 568.332 1888.12 564.895C1888.12 563.314 1888.19 561.63 1888.33 559.842C1888.53 557.986 1888.84 556.027 1889.25 553.965C1890.08 549.36 1891.14 545.407 1892.45 542.108C1893.82 538.74 1895.54 535.956 1897.59 533.756C1899.65 531.556 1902.16 529.941 1905.11 528.91C1908.06 527.81 1911.6 527.26 1915.72 527.26C1918.74 527.26 1921.45 527.604 1923.85 528.291C1926.26 528.91 1928.28 529.941 1929.93 531.384C1931.58 532.828 1932.85 534.753 1933.74 537.159C1934.63 539.496 1935.08 542.383 1935.08 545.82C1935.08 547.401 1934.98 549.119 1934.77 550.975C1934.63 552.762 1934.36 554.687 1933.95 556.749C1933.12 561.355 1932.02 565.342 1930.65 568.71C1929.35 572.009 1927.67 574.759 1925.61 576.958C1923.55 579.158 1921.04 580.774 1918.09 581.805C1915.13 582.904 1911.6 583.454 1907.48 583.454ZM1907.99 579.742C1911.15 579.742 1913.9 579.364 1916.23 578.608C1918.64 577.852 1920.7 576.615 1922.41 574.896C1924.13 573.109 1925.57 570.772 1926.74 567.885C1927.97 564.929 1929 561.286 1929.83 556.955C1930.24 554.756 1930.55 552.694 1930.76 550.769C1931.03 548.844 1931.17 547.091 1931.17 545.51C1931.17 540.149 1929.86 536.402 1927.25 534.271C1924.71 532.072 1920.7 530.972 1915.2 530.972C1912.05 530.972 1909.27 531.35 1906.86 532.106C1904.53 532.862 1902.5 534.134 1900.79 535.921C1899.07 537.64 1897.59 539.977 1896.36 542.933C1895.19 545.82 1894.19 549.428 1893.37 553.759C1892.96 555.959 1892.62 558.021 1892.34 559.946C1892.13 561.87 1892.03 563.623 1892.03 565.204C1892.03 570.566 1893.3 574.346 1895.84 576.546C1898.45 578.677 1902.5 579.742 1907.99 579.742ZM1950.12 528.91L1959.49 577.577L1987.71 528.91H1991.93L1961.24 581.805H1956.4L1946.1 528.91H1950.12ZM2012.38 582.733C2009.09 582.733 2006.13 582.492 2003.52 582.011C2000.98 581.598 1998.79 580.842 1996.93 579.742C1995.15 578.643 1993.77 577.199 1992.81 575.412C1991.85 573.625 1991.37 571.425 1991.37 568.813C1991.37 567.232 1991.58 565.445 1991.99 563.451C1993.16 558.021 1995.49 554.137 1998.99 551.8C2002.56 549.463 2007.27 548.294 2013.1 548.294C2017.57 548.294 2021.34 548.844 2024.43 549.944C2027.52 551.044 2029.72 552.969 2031.02 555.718L2032.36 548.913C2032.57 547.813 2032.74 546.782 2032.88 545.82C2033.01 544.857 2033.08 543.929 2033.08 543.036C2033.08 539.393 2031.92 536.712 2029.58 534.993C2027.32 533.275 2023.43 532.416 2017.94 532.416C2015.33 532.416 2012.72 532.416 2010.11 532.416C2007.57 532.416 2004.97 532.484 2002.29 532.622L2003.83 528.91C2004.52 528.841 2006 528.807 2008.26 528.807C2010.6 528.738 2013.96 528.704 2018.35 528.704C2021.79 528.704 2024.67 529.047 2027 529.735C2029.34 530.353 2031.23 531.281 2032.67 532.519C2034.11 533.756 2035.14 535.268 2035.76 537.055C2036.45 538.774 2036.79 540.699 2036.79 542.83C2036.79 543.861 2036.72 544.96 2036.58 546.129C2036.52 547.229 2036.34 548.363 2036.07 549.532L2030.51 577.68C2030.16 579.124 2029.72 580.086 2029.17 580.567C2028.62 581.048 2027.66 581.427 2026.29 581.701C2024.84 581.976 2022.78 582.217 2020.11 582.423C2017.5 582.629 2014.92 582.733 2012.38 582.733ZM2012.79 579.021C2014.99 579.021 2017.26 578.952 2019.59 578.814C2021.99 578.608 2024.33 578.368 2026.59 578.093L2028.65 567.266C2028.79 566.441 2028.89 565.651 2028.96 564.895C2029.1 564.139 2029.17 563.417 2029.17 562.729C2029.17 558.605 2027.76 555.787 2024.94 554.275C2022.13 552.694 2018.15 551.903 2013 551.903C2007.99 551.903 2004.11 552.831 2001.36 554.687C1998.69 556.543 1996.86 559.671 1995.9 564.07C1995.77 564.895 1995.63 565.685 1995.49 566.441C1995.42 567.129 1995.39 567.816 1995.39 568.504C1995.39 570.772 1995.83 572.594 1996.73 573.968C1997.62 575.343 1998.82 576.409 2000.33 577.165C2001.91 577.921 2003.77 578.436 2005.89 578.711C2008.02 578.918 2010.32 579.021 2012.79 579.021ZM2079.54 569.844C2079.68 569.157 2079.79 568.538 2079.85 567.988C2079.99 567.369 2080.06 566.785 2080.06 566.235C2080.06 562.248 2077.31 559.499 2071.82 557.986L2060.08 554.687C2056.3 553.587 2053.66 552.109 2052.15 550.253C2050.71 548.329 2049.99 546.198 2049.99 543.861C2049.99 542.555 2050.13 541.352 2050.4 540.252C2050.95 537.846 2051.81 535.887 2052.97 534.375C2054.21 532.862 2055.69 531.694 2057.4 530.869C2059.19 530.044 2061.21 529.494 2063.48 529.219C2065.81 528.875 2068.35 528.704 2071.1 528.704C2071.78 528.704 2072.78 528.704 2074.09 528.704C2075.39 528.704 2076.87 528.738 2078.51 528.807C2080.16 528.807 2081.88 528.841 2083.66 528.91C2085.52 528.979 2087.37 529.047 2089.22 529.116L2087.78 532.828C2086.34 532.759 2084.69 532.725 2082.84 532.725C2081.05 532.656 2079.27 532.622 2077.48 532.622C2075.7 532.553 2074.05 532.519 2072.54 532.519C2071.1 532.45 2069.97 532.416 2069.14 532.416C2064.68 532.416 2061.25 533.034 2058.84 534.271C2056.44 535.44 2054.9 537.571 2054.21 540.664C2054.07 541.214 2053.97 541.73 2053.9 542.211C2053.83 542.692 2053.8 543.173 2053.8 543.654C2053.8 545.442 2054.38 546.954 2055.55 548.191C2056.72 549.36 2058.78 550.356 2061.73 551.181L2072.75 554.275C2076.8 555.443 2079.68 556.955 2081.4 558.811C2083.11 560.667 2083.97 563.004 2083.97 565.823C2083.97 566.373 2083.9 567.129 2083.77 568.091C2083.63 569.053 2083.46 569.947 2083.25 570.772C2082.84 572.422 2082.22 573.934 2081.4 575.309C2080.64 576.684 2079.47 577.886 2077.9 578.918C2076.38 579.88 2074.39 580.636 2071.92 581.186C2069.45 581.736 2066.33 582.011 2062.55 582.011C2059.05 582.011 2055.79 582.011 2052.77 582.011C2049.81 582.011 2046.62 581.942 2043.19 581.805L2044.73 578.093C2047 578.161 2048.92 578.23 2050.5 578.299C2052.08 578.299 2053.49 578.299 2054.73 578.299C2056.03 578.299 2057.27 578.299 2058.43 578.299C2059.67 578.299 2061.07 578.299 2062.65 578.299C2065.95 578.299 2068.63 578.093 2070.69 577.68C2072.75 577.268 2074.36 576.684 2075.53 575.927C2076.76 575.171 2077.66 574.278 2078.21 573.247C2078.76 572.215 2079.2 571.081 2079.54 569.844ZM2128.12 569.844C2128.26 569.157 2128.36 568.538 2128.43 567.988C2128.57 567.369 2128.64 566.785 2128.64 566.235C2128.64 562.248 2125.89 559.499 2120.4 557.986L2108.66 554.687C2104.88 553.587 2102.24 552.109 2100.73 550.253C2099.28 548.329 2098.56 546.198 2098.56 543.861C2098.56 542.555 2098.7 541.352 2098.98 540.252C2099.53 537.846 2100.38 535.887 2101.55 534.375C2102.79 532.862 2104.26 531.694 2105.98 530.869C2107.76 530.044 2109.79 529.494 2112.05 529.219C2114.39 528.875 2116.93 528.704 2119.67 528.704C2120.36 528.704 2121.36 528.704 2122.66 528.704C2123.97 528.704 2125.44 528.738 2127.09 528.807C2128.74 528.807 2130.45 528.841 2132.24 528.91C2134.09 528.979 2135.95 529.047 2137.8 529.116L2136.36 532.828C2134.92 532.759 2133.27 532.725 2131.41 532.725C2129.63 532.656 2127.84 532.622 2126.06 532.622C2124.27 532.553 2122.63 532.519 2121.12 532.519C2119.67 532.45 2118.54 532.416 2117.72 532.416C2113.26 532.416 2109.82 533.034 2107.42 534.271C2105.02 535.44 2103.47 537.571 2102.79 540.664C2102.65 541.214 2102.55 541.73 2102.48 542.211C2102.41 542.692 2102.37 543.173 2102.37 543.654C2102.37 545.442 2102.96 546.954 2104.13 548.191C2105.29 549.36 2107.35 550.356 2110.3 551.181L2121.32 554.275C2125.37 555.443 2128.26 556.955 2129.97 558.811C2131.69 560.667 2132.55 563.004 2132.55 565.823C2132.55 566.373 2132.48 567.129 2132.34 568.091C2132.21 569.053 2132.03 569.947 2131.83 570.772C2131.41 572.422 2130.8 573.934 2129.97 575.309C2129.22 576.684 2128.05 577.886 2126.47 578.918C2124.96 579.88 2122.97 580.636 2120.5 581.186C2118.03 581.736 2114.9 582.011 2111.13 582.011C2107.63 582.011 2104.36 582.011 2101.34 582.011C2098.39 582.011 2095.2 581.942 2091.77 581.805L2093.31 578.093C2095.58 578.161 2097.5 578.23 2099.08 578.299C2100.66 578.299 2102.07 578.299 2103.3 578.299C2104.61 578.299 2105.84 578.299 2107.01 578.299C2108.25 578.299 2109.65 578.299 2111.23 578.299C2114.53 578.299 2117.2 578.093 2119.26 577.68C2121.32 577.268 2122.94 576.684 2124.1 575.927C2125.34 575.171 2126.23 574.278 2126.78 573.247C2127.33 572.215 2127.78 571.081 2128.12 569.844ZM2164.65 582.733C2161.35 582.733 2158.4 582.492 2155.79 582.011C2153.25 581.598 2151.05 580.842 2149.2 579.742C2147.42 578.643 2146.04 577.199 2145.08 575.412C2144.12 573.625 2143.64 571.425 2143.64 568.813C2143.64 567.232 2143.85 565.445 2144.26 563.451C2145.42 558.021 2147.76 554.137 2151.26 551.8C2154.83 549.463 2159.53 548.294 2165.37 548.294C2169.83 548.294 2173.61 548.844 2176.7 549.944C2179.79 551.044 2181.98 552.969 2183.29 555.718L2184.63 548.913C2184.83 547.813 2185 546.782 2185.14 545.82C2185.28 544.857 2185.35 543.929 2185.35 543.036C2185.35 539.393 2184.18 536.712 2181.85 534.993C2179.58 533.275 2175.7 532.416 2170.21 532.416C2167.6 532.416 2164.99 532.416 2162.38 532.416C2159.84 532.416 2157.23 532.484 2154.56 532.622L2156.1 528.91C2156.79 528.841 2158.26 528.807 2160.53 528.807C2162.86 528.738 2166.23 528.704 2170.62 528.704C2174.05 528.704 2176.94 529.047 2179.27 529.735C2181.61 530.353 2183.49 531.281 2184.93 532.519C2186.38 533.756 2187.41 535.268 2188.02 537.055C2188.71 538.774 2189.05 540.699 2189.05 542.83C2189.05 543.861 2188.99 544.96 2188.85 546.129C2188.78 547.229 2188.61 548.363 2188.34 549.532L2182.77 577.68C2182.43 579.124 2181.98 580.086 2181.43 580.567C2180.88 581.048 2179.92 581.427 2178.55 581.701C2177.11 581.976 2175.05 582.217 2172.37 582.423C2169.76 582.629 2167.19 582.733 2164.65 582.733ZM2165.06 579.021C2167.26 579.021 2169.52 578.952 2171.86 578.814C2174.26 578.608 2176.59 578.368 2178.86 578.093L2180.92 567.266C2181.06 566.441 2181.16 565.651 2181.23 564.895C2181.36 564.139 2181.43 563.417 2181.43 562.729C2181.43 558.605 2180.03 555.787 2177.21 554.275C2174.4 552.694 2170.42 551.903 2165.27 551.903C2160.25 551.903 2156.37 552.831 2153.63 554.687C2150.95 556.543 2149.13 559.671 2148.17 564.07C2148.03 564.895 2147.9 565.685 2147.76 566.441C2147.69 567.129 2147.65 567.816 2147.65 568.504C2147.65 570.772 2148.1 572.594 2148.99 573.968C2149.89 575.343 2151.09 576.409 2152.6 577.165C2154.18 577.921 2156.03 578.436 2158.16 578.711C2160.29 578.918 2162.59 579.021 2165.06 579.021ZM2212.24 528.91H2233.77L2232.22 532.519H2211.52L2205.55 563.554C2205.14 565.823 2204.93 567.747 2204.93 569.328C2204.93 572.697 2205.86 574.999 2207.71 576.237C2209.57 577.474 2212.45 578.093 2216.36 578.093H2224.19L2222.64 581.805H2216.46C2211.45 581.805 2207.61 580.98 2204.93 579.33C2202.32 577.68 2201.02 574.553 2201.02 569.947C2201.02 567.816 2201.26 565.548 2201.74 563.142L2211.01 515.196L2215.02 514.475L2212.24 528.91Z" fill="white" />
    </g>
    <defs>
        <clipPath id="clip0_2176_222">
            <rect width="1965" height="208" fill="white" transform="translate(1688 254)" />
        </clipPath>
        <clipPath id="clip1_2176_222">
            <rect width="1464" height="93" fill="white" transform="translate(770 507)" />
        </clipPath>
    </defs>
</svg>
