<svg width="800" height="800" viewBox="0 0 800 800" fill="none" xmlns="http://www.w3.org/2000/svg">
    <path d="M197 550.001L223.667 523.668C229.943 517.391 233.47 508.878 233.47 500.001C233.47 491.124 229.943 482.611 223.667 476.334C217.39 470.058 208.877 466.531 200 466.531C191.123 466.531 182.61 470.058 176.333 476.334L150 503.001L123.667 476.334C117.39 470.058 108.877 466.531 100 466.531C91.1233 466.531 82.6101 470.058 76.3333 476.334C70.0565 482.611 66.5303 491.124 66.5303 500.001C66.5303 508.878 70.0565 517.391 76.3333 523.668L103 550.001L76.3333 576.334C73.2091 579.433 70.7292 583.12 69.037 587.182C67.3447 591.244 66.4734 595.601 66.4734 600.001C66.4734 604.401 67.3447 608.758 69.037 612.82C70.7292 616.882 73.2091 620.569 76.3333 623.668C79.4321 626.792 83.1188 629.272 87.1808 630.964C91.2428 632.656 95.5996 633.528 100 633.528C104.4 633.528 108.757 632.656 112.819 630.964C116.881 629.272 120.568 626.792 123.667 623.668L150 597.001L176.333 623.668C179.432 626.792 183.119 629.272 187.181 630.964C191.243 632.656 195.6 633.528 200 633.528C204.4 633.528 208.757 632.656 212.819 630.964C216.881 629.272 220.568 626.792 223.667 623.668C226.791 620.569 229.271 616.882 230.963 612.82C232.655 608.758 233.527 604.401 233.527 600.001C233.527 595.601 232.655 591.244 230.963 587.182C229.271 583.12 226.791 579.433 223.667 576.334L197 550.001Z" fill="#D01619" />
    <path d="M233.333 266.668C233.28 233.105 241.673 200.069 257.74 170.603C273.807 141.136 297.031 116.187 325.273 98.0534C353.514 79.9197 385.865 69.1847 419.345 66.8374C452.825 64.4902 486.358 70.6061 516.854 84.6217C547.349 98.6374 573.827 120.102 593.849 147.038C613.87 173.975 626.791 205.517 631.421 238.758C636.051 271.999 632.241 305.871 620.342 337.253C608.443 368.636 588.838 396.519 563.333 418.334C613.75 437.942 657.011 472.42 687.374 517.19C717.737 561.961 733.766 614.907 733.333 669.001C732.728 686.275 725.438 702.638 713.001 714.64C700.563 726.642 683.951 733.345 666.667 733.334H333.333C324.493 733.334 316.014 729.822 309.763 723.571C303.512 717.32 300 708.842 300 700.001V443.334C300.155 435.619 302.983 428.197 308 422.334C284.717 403.612 265.925 379.911 253.004 352.973C240.083 326.035 233.362 296.544 233.333 266.668Z" fill="#1C233B" />
</svg>
