<svg width="800" height="800" viewBox="0 0 800 800" fill="none" xmlns="http://www.w3.org/2000/svg">
    <path d="M169.667 409.667L390.333 630.001C396.424 636.388 399.877 644.842 400 653.667V700.001C400 708.841 396.488 717.32 390.237 723.571C383.986 729.822 375.507 733.334 366.667 733.334H320.333C315.946 733.359 311.598 732.518 307.536 730.86C303.475 729.201 299.781 726.757 296.667 723.667L76.3333 503.001C70.2257 496.77 66.8047 488.392 66.8047 479.667C66.8047 470.942 70.2257 462.565 76.3333 456.334L123 409.667C129.231 403.56 137.608 400.139 146.333 400.139C155.058 400.139 163.436 403.56 169.667 409.667Z" fill="#21C5DE" />
    <path d="M233.333 266.668C233.28 233.105 241.673 200.069 257.74 170.603C273.807 141.136 297.031 116.187 325.273 98.0534C353.514 79.9197 385.865 69.1847 419.345 66.8374C452.825 64.4902 486.358 70.6061 516.854 84.6217C547.349 98.6374 573.827 120.102 593.849 147.038C613.87 173.975 626.791 205.517 631.421 238.758C636.051 271.999 632.241 305.871 620.342 337.253C608.443 368.636 588.838 396.519 563.333 418.334C613.378 437.799 656.38 471.919 686.712 516.228C717.045 560.537 733.294 612.971 733.333 666.668C733.333 684.349 726.309 701.306 713.807 713.808C701.305 726.31 684.348 733.334 666.667 733.334H433.333V653.668C433.259 636.015 426.186 619.113 413.667 606.668L252 445.001C268.298 434.517 285.607 425.695 303.667 418.668C281.653 399.922 263.965 376.625 251.823 350.384C239.681 324.143 233.373 295.582 233.333 266.668Z" fill="#1C233B" />
</svg>
