<svg width="800" height="800" viewBox="0 0 800 800" fill="none" xmlns="http://www.w3.org/2000/svg">
    <path opacity="0.4" d="M733.333 260.333V539.666C733.333 633.333 690.333 697.666 614.667 721.999C592.667 729.666 567.333 733.333 539.667 733.333H260.333C232.667 733.333 207.333 729.666 185.333 721.999C109.667 697.666 66.6666 633.333 66.6666 539.666V260.333C66.6666 138.999 139 66.666 260.333 66.666H539.667C661 66.666 733.333 138.999 733.333 260.333Z" fill="black" />
    <path d="M614.687 721.999C592.687 729.666 567.353 733.333 539.687 733.333H260.352C232.685 733.333 207.352 729.666 185.352 721.999C197.018 633.999 289.018 565.666 400.017 565.666C511.017 565.666 603.02 633.999 614.687 721.999Z" fill="white" />
    <path d="M519.33 385.999C519.33 451.999 465.997 505.666 399.997 505.666C333.997 505.666 280.664 451.999 280.664 385.999C280.664 320 333.997 266.666 399.997 266.666C465.997 266.666 519.33 320 519.33 385.999Z" fill="white" />
</svg>
