<svg width="456" height="456" viewBox="0 0 456 456" fill="none" xmlns="http://www.w3.org/2000/svg">
    <path fill-rule="evenodd" clip-rule="evenodd" d="M427.82 238.693V288.342C427.82 321.27 410.537 334.152 376.899 334.152H351.348C318.019 380.864 264.574 409 206.648 409C108.129 409 28 327.814 28 228C28 128.186 108.129 47 206.648 47C276.963 47 340.814 88.9199 369.636 153.874H361.754C333.473 93.2226 273.048 54.24 206.648 54.24C112.07 54.24 35.1346 132.18 35.1346 228C35.1346 323.82 112.07 401.76 206.648 401.76C265.914 401.76 320.286 371.074 351.606 320.832L351.632 320.858C355.392 314.597 358.225 313.489 364.458 313.36H375.379C393.641 313.36 401.419 307.408 401.419 289.321V285.456C394.001 291.434 383.57 293.34 373.113 293.34C340.428 293.34 326.571 277.752 326.571 245.623V240.419C326.571 206.538 342.514 191.723 377.285 191.723C411.31 191.723 427.82 205.971 427.82 238.693ZM132.031 155.342L158.637 151.091V199.787C166.236 193.835 177.44 191.723 187.691 191.723C219.99 191.723 234.8 207.877 234.8 240.986V250.029C234.8 285.276 218.856 299.524 182.746 299.524C148 299.524 132.031 284.889 132.031 249.849V155.342ZM183.699 212.902C164.716 212.902 158.251 219.446 158.251 238.899V249.849C158.251 271.234 164.716 278.551 183.338 278.551C201.934 278.551 208.399 271.234 208.399 250.055V241.965C208.399 220.219 201.934 212.902 183.699 212.902ZM280.209 216.56V255.826C280.209 272.007 284.974 275.64 299.603 275.64H316.113L311.76 297.025H297.697C265.579 297.025 253.808 287.981 253.808 257.553V169.59L280.209 165.545V194.995H317.839L313.46 216.56H280.209ZM401.599 241.398C401.599 220.219 397.607 212.902 377.285 212.902C356.577 212.902 352.971 220.399 352.971 241.192V244.464C352.971 265.462 356.963 272.574 377.285 272.574C395.341 272.574 401.599 266.983 401.599 248.896V241.398Z" fill="#001E62" stroke="#001E62" stroke-width="8" />
</svg>
